<svg xmlns="http://www.w3.org/2000/svg" viewBox="0 0 40.56 62.7"><defs><style>.cls-1{fill:#fff;}</style></defs><g id="Layer_2" data-name="Layer 2"><g id="Layer_1-2" data-name="Layer 1"><path class="cls-1" d="M37,37.55a2.09,2.09,0,0,0,3-.12,2.09,2.09,0,0,0-.12-3L29.59,24.94V20.88c6.48-4.46,10.12-7.52,10.73-9,1.58-4-5.19-9.48-8.71-11.54a2.1,2.1,0,1,0-2.12,3.63c3.75,2.19,6.4,5.27,6.81,6.44a57,57,0,0,1-7,5.58,6.71,6.71,0,0,0-6.42-4.89H17.67a6.7,6.7,0,0,0-6.42,4.89,57,57,0,0,1-7-5.58c.4-1.18,3.06-4.25,6.82-6.44A2.1,2.1,0,0,0,9,.29C5.43,2.35-1.34,7.87.24,11.83c.61,1.53,4.25,4.59,10.73,9v4.06L.67,34.46a2.11,2.11,0,0,0,2.86,3.09L11,30.67v4.17c-5.5,3.75-9.39,8.48-9.39,11.6,0,2,3.42,7.19,10.16,15.48a2.09,2.09,0,0,0,1.63.78,2,2,0,0,0,1.32-.47,2.1,2.1,0,0,0,.31-3c-4.16-5.12-8.87-11.56-9.22-12.83,0-.78,1.64-3.46,5.22-6.39a6.71,6.71,0,0,0,6.67,6.39h5.22A6.7,6.7,0,0,0,29.56,40c3.58,2.93,5.2,5.58,5.23,6.2-.35,1.47-5.07,7.91-9.23,13a2.11,2.11,0,0,0,.31,3,2.05,2.05,0,0,0,1.32.47,2.09,2.09,0,0,0,1.63-.78C35.56,53.63,39,48.42,39,46.44c0-3.12-3.89-7.84-9.39-11.6V30.67Z"/></g></g></svg>