<svg xmlns="http://www.w3.org/2000/svg" viewBox="0 0 38.99 43.38"><defs><style>.cls-1{fill:#fff;}</style></defs><g id="Layer_2" data-name="Layer 2"><g id="Layer_1-2" data-name="Layer 1"><path class="cls-1" d="M36.88,0a3,3,0,0,0-3,3c0,4-.26,10.76-1.87,11.09s-1.49-3.24-1.29-5.77A2.29,2.29,0,0,0,28.4,5.86s-.7,7.53,0,10.6,5.41,4.69,5.41,4.69V37.52H5.18V21.15s4.7-1.63,5.41-4.69,0-10.6,0-10.6A2.29,2.29,0,0,0,8.3,8.33c.19,2.53.2,6.07-1.29,5.77S5.15,7.05,5.14,3a3,3,0,0,0-3-3H0V43.38H39V0Z"/></g></g></svg>