<svg xmlns="http://www.w3.org/2000/svg" viewBox="0 0 38.22 75.21"><defs><style>.cls-1{fill:#fff;}</style></defs><g id="Layer_2" data-name="Layer 2"><g id="Layer_1-2" data-name="Layer 1"><path class="cls-1" d="M35.09,29.67H22.74C26,25.36,34.27,13.08,30.65,5.54,28.89,1.86,24.83,0,18.59,0,12.75,0,9,1.75,7.41,5.2c-3.21,7,4.93,18.65,8.89,23.68a3.26,3.26,0,0,0-.4.79H3.14a3.14,3.14,0,0,0,0,6.28H15.38L13.28,69c0,.23,0,.5,0,.74A5.84,5.84,0,0,0,24.94,69L22.85,36H35.09a3.14,3.14,0,0,0,0-6.28ZM11.53,7.08c1-2.11,4.37-2.55,7.06-2.55,4.35,0,7,1,8,3,2,4.1-2.6,12.73-6.76,18.54C14.88,19.77,9.78,10.9,11.53,7.08Z"/></g></g></svg>