<svg xmlns="http://www.w3.org/2000/svg" viewBox="0 0 35.76 47.44"><defs><style>.cls-1{fill:#fff;}</style></defs><g id="Layer_2" data-name="Layer 2"><g id="Layer_1-2" data-name="Layer 1"><path class="cls-1" d="M30.6,31.86c-.29-1.24-1.7-5.78-3-9.8a8,8,0,0,0,1.06-3.95A8.18,8.18,0,0,0,23,10.34V4.78h5.3V0H12.93V4.78h5.31v5.48A8.14,8.14,0,0,0,15,24.17c-.87,4.68-2.16,10.52-3.42,12.4C9.4,39.86,1.14,39.19.2,40.44s1.65,3.86,3.51,3.89,5.73-1.6,7.22-.1,3.12,2,4.34.67,0-6.46,1.22-8.51c.74-1.2,3.39-6.24,5.46-10.22l.23,0c2.35,3.53,4.71,7.43,5.08,9.3.78,3.88-5.53,9.25-5.32,10.8s3.9,1.56,5.24.26,2.92-5.18,5-5.17,3.65-.77,3.54-2.6S31.17,34.19,30.6,31.86Z"/></g></g></svg>