<svg xmlns="http://www.w3.org/2000/svg" viewBox="0 0 36.51 42.44"><defs><style>.cls-1{fill:#fff;}</style></defs><g id="Layer_2" data-name="Layer 2"><g id="Layer_1-2" data-name="Layer 1"><path class="cls-1" d="M36.42,10.6c-.5-1.15-3-1.16-5.55,0a9.55,9.55,0,0,0-2.71,1.76c-1.92-.81-4.52-.86-7.31-.91V5c0-.06,0-.1,0-.16h6a2.43,2.43,0,0,0,0-4.86H9.67a2.43,2.43,0,1,0,0,4.86h6a.9.9,0,0,0,0,.16v6.39c-2.79.05-5.39.1-7.32.91a9.55,9.55,0,0,0-2.71-1.76c-2.56-1.12-5-1.11-5.55,0s1.16,3,3.73,4.12a11.13,11.13,0,0,0,1.71.58,11.87,11.87,0,0,0-.23,5.76,96.9,96.9,0,0,0,6.36,21.38H24.85a96.9,96.9,0,0,0,6.36-21.38A11.9,11.9,0,0,0,31,15.3a11.91,11.91,0,0,0,1.71-.58C35.26,13.59,36.93,11.75,36.42,10.6Z"/></g></g></svg>