<svg xmlns="http://www.w3.org/2000/svg" viewBox="0 0 46.34 46.34"><defs><style>.cls-1{fill:#fff;}</style></defs><g id="Layer_2" data-name="Layer 2"><g id="Layer_1-2" data-name="Layer 1"><path class="cls-1" d="M23.17,0A23.17,23.17,0,1,0,46.34,23.17,23.19,23.19,0,0,0,23.17,0Zm0,40.39A17.22,17.22,0,1,1,40.39,23.17,17.24,17.24,0,0,1,23.17,40.39Z"/><path class="cls-1" d="M25.72,10.9A3,3,0,1,0,20.63,14L29.4,28.47A3,3,0,0,0,32,29.91a3,3,0,0,0,2.54-4.52Z"/><path class="cls-1" d="M16.94,18.15a3,3,0,1,0-5.09,3.08l8.78,14.48a3,3,0,1,0,5.09-3.08Z"/></g></g></svg>