<svg xmlns="http://www.w3.org/2000/svg" viewBox="0 0 24.68 59.64"><defs><style>.cls-1{fill:#fff;}</style></defs><g id="Layer_2" data-name="Layer 2"><g id="Layer_1-2" data-name="Layer 1"><path class="cls-1" d="M24.22,56.78a117.68,117.68,0,0,1-9.84-12c1.83-2.9,3.13-5.68,3.13-7.7,0-3.17-1.57-5.63-3.1-7.81a12.36,12.36,0,0,0,2.54-7A12.69,12.69,0,0,0,14.49,15l.73-.86a23.4,23.4,0,0,0,2.5-3.23A7.55,7.55,0,0,0,18,3.38a6.39,6.39,0,0,0-3.78-3A1.66,1.66,0,0,0,13.13,0H11.56a1.66,1.66,0,0,0-1.07.38,6.39,6.39,0,0,0-3.78,3A7.55,7.55,0,0,0,7,10.86a23.4,23.4,0,0,0,2.5,3.23l.74.86a12.62,12.62,0,0,0-2.47,7.36,12.36,12.36,0,0,0,2.54,7c-1.53,2.18-3.1,4.64-3.1,7.81,0,2,1.3,4.8,3.13,7.7a117.68,117.68,0,0,1-9.84,12A1.69,1.69,0,1,0,2.93,59.1a121.83,121.83,0,0,0,9.41-11.26A121.83,121.83,0,0,0,21.75,59.1a1.66,1.66,0,0,0,1.23.54,1.75,1.75,0,0,0,1.17-.46A1.7,1.7,0,0,0,24.22,56.78ZM9.87,9.11a4.14,4.14,0,0,1-.21-4.06,3.4,3.4,0,0,1,2.68-1.61A3.39,3.39,0,0,1,15,5.05a4.11,4.11,0,0,1-.21,4.06,21.47,21.47,0,0,1-2.16,2.76l-.31.36L12,11.87A21.47,21.47,0,0,1,9.87,9.11Zm3.69,13.2a7.76,7.76,0,0,1-1.22,3.93,7.76,7.76,0,0,1-1.22-3.93,8.81,8.81,0,0,1,1.22-4.41A8.81,8.81,0,0,1,13.56,22.31ZM12.34,41.67a10.71,10.71,0,0,1-1.78-4.55,8.87,8.87,0,0,1,1.78-4.83,8.79,8.79,0,0,1,1.78,4.83A10.71,10.71,0,0,1,12.34,41.67Z"/></g></g></svg>