<svg xmlns="http://www.w3.org/2000/svg" viewBox="0 0 56.25 68.23"><defs><style>.cls-1{fill:#fff;}</style></defs><g id="Layer_2" data-name="Layer 2"><g id="Layer_1-2" data-name="Layer 1"><path class="cls-1" d="M56,57.16c2.48-3.22-16.42-10.59-24.92-23.94a187.45,187.45,0,0,0-14.9-20.66,8.48,8.48,0,0,0,1-4,8.61,8.61,0,1,0-11,8.23c-.21,5.05.21,12.44,5.33,19.61,2,2.78,3.9,5.34,5.77,7.6-.84,3.5-1.94,8.27-2.23,10.56a16.86,16.86,0,0,0,.76,6.53H6.19a2,2,0,1,0,0,4H29.61a2,2,0,0,0,1.82-2.82c-.51-1.13-1.77-4.65-1.45-7.22.08-.64.24-1.53.45-2.55.15,0,.31,0,.46,0,6.45-.92,10.13,3.22,11,6s6.44,10.13,12.43,9.67S48.13,59.14,47,56.7C44.24,50.71,53.55,60.38,56,57.16Zm-36,4a14.66,14.66,0,0,1-1-6c.19-1.58.85-4.6,1.52-7.46a19.05,19.05,0,0,0,5.89,4.26c-.21,1.06-.37,2-.46,2.71a17.05,17.05,0,0,0,.75,6.53Z"/></g></g></svg>