<svg xmlns="http://www.w3.org/2000/svg" viewBox="0 0 66.71 63.65"><defs><style>.cls-1{fill:#fff;}</style></defs><g id="Layer_2" data-name="Layer 2"><g id="Layer_1-2" data-name="Layer 1"><path class="cls-1" d="M60.39,42.33c-7.64.37-13.1-3.27-17.83-4.2A5.7,5.7,0,0,1,40,36.84,2.18,2.18,0,0,0,38.57,35a1.11,1.11,0,0,0-.25,0,7.9,7.9,0,0,1,1.41-10.11c5.17-4.79,11.56.06,18.11,0s8.87-11.17,8.87-11.17S48,12.86,42.92,12.4,32,22.32,28.35,24.14a6.41,6.41,0,0,1-8.53-2.94c-1.27-2.57,3.46-6.52,6.07-9.07S30.55,1.58,23.72.24s-8.26,3.29-9.89,5.84S1.36,5.36.72,6s4.2,4.73,9.13,5.46,7.34-2.91,10-1.82-2.73,5.82-4.44,9.09c-1,2-.85,7.7.46,12.87C8.93,32.5,4,37.05,4.32,38.13c.4,1.29-6.51,24.17-3.6,25.46s9.46-19.07,12.73-19.44a54.44,54.44,0,0,0,9.85-2.34,21.68,21.68,0,0,0,3.53.91L21.68,56.23A2.19,2.19,0,0,0,23,59.05a2.32,2.32,0,0,0,.77.14,2.19,2.19,0,0,0,2-1.41l5.55-14.55,1.74.11L28.56,55.1a2.19,2.19,0,0,0,1.27,2.82,2.09,2.09,0,0,0,.77.14,2.17,2.17,0,0,0,2-1.41l5-13.14c1.53.06,3,.13,4.18.28,6.19.73,5.82,6.91,8,11.28s15.36,0,15.36,0S68,42,60.39,42.33Z"/></g></g></svg>