<svg xmlns="http://www.w3.org/2000/svg" viewBox="0 0 62.54 45.46"><defs><style>.cls-1{fill:#fff;}</style></defs><g id="Layer_2" data-name="Layer 2"><g id="Layer_1-2" data-name="Layer 1"><path class="cls-1" d="M62.54,35.49a15.47,15.47,0,0,0-30.39,0Z"/><path class="cls-1" d="M36.68,16.25,26.05,1a2.27,2.27,0,0,0-3.72,2.59l4,5.78a69.48,69.48,0,0,0-6,5.33C17,9,13.66,4.27,12.91,3.22a2.27,2.27,0,0,0-1.85-1h0a2.28,2.28,0,0,0-1.85,1C8.75,3.88-2,19.42.34,35.81a2.26,2.26,0,1,0,4.48-.65C3.27,24.4,8.36,13.63,11.18,8.66c1.93,2.86,4,6.16,6,9.47C13,22.93,9.09,29.1,8.8,35.38c-.32,7,3.74,9.78,7.65,10.06.23,0,.46,0,.7,0,5.2,0,11.1-4,11.66-9.76.38-4-2.59-10.66-6.07-17A68.6,68.6,0,0,1,29,13.06l4,5.77a2.26,2.26,0,0,0,1.85,1,2.2,2.2,0,0,0,1.29-.41A2.25,2.25,0,0,0,36.68,16.25Zm-12.38,19c-.32,3.31-4.41,5.87-7.53,5.66-2.44-.18-3.6-2-3.45-5.34.21-4.58,3-9.29,6.22-13.25C22.45,27.76,24.55,32.72,24.3,35.27Z"/></g></g></svg>